<svg width="52" height="52" viewBox="0 0 52 52" fill="none" xmlns="http://www.w3.org/2000/svg">
<path d="M14 48C12.8954 48 12 48.8954 12 50C12 51.1046 12.8954 52 14 52C15.1046 52 16 51.1046 16 50C16 48.8954 15.1046 48 14 48Z" fill="#808080" fill-opacity="0.3"/>
<path d="M2 48C0.89543 48 -3.70216e-08 48.8954 -2.38498e-08 50C-1.06779e-08 51.1046 0.89543 52 2 52C3.10457 52 4 51.1046 4 50C4 48.8954 3.10457 48 2 48Z" fill="#808080" fill-opacity="0.3"/>
<path d="M38 36C36.8954 36 36 36.8954 36 38C36 39.1046 36.8954 40 38 40C39.1046 40 40 39.1046 40 38C40 36.8954 39.1046 36 38 36Z" fill="#808080" fill-opacity="0.3"/>
<path d="M26 36C24.8954 36 24 36.8954 24 38C24 39.1046 24.8954 40 26 40C27.1046 40 28 39.1046 28 38C28 36.8954 27.1046 36 26 36Z" fill="#808080" fill-opacity="0.3"/>
<path d="M14 36C12.8954 36 12 36.8954 12 38C12 39.1046 12.8954 40 14 40C15.1046 40 16 39.1046 16 38C16 36.8954 15.1046 36 14 36Z" fill="#808080" fill-opacity="0.3"/>
<path d="M2 36C0.89543 36 -1.8012e-07 36.8954 -1.66948e-07 38C-1.53776e-07 39.1046 0.89543 40 2 40C3.10457 40 4 39.1046 4 38C4 36.8954 3.10457 36 2 36Z" fill="#808080" fill-opacity="0.3"/>
<path d="M38 24C36.8954 24 36 24.8954 36 26C36 27.1046 36.8954 28 38 28C39.1046 28 40 27.1046 40 26C40 24.8954 39.1046 24 38 24Z" fill="#808080" fill-opacity="0.3"/>
<path d="M26 24C24.8954 24 24 24.8954 24 26C24 27.1046 24.8954 28 26 28C27.1046 28 28 27.1046 28 26C28 24.8954 27.1046 24 26 24Z" fill="#808080" fill-opacity="0.3"/>
<path d="M14 24C12.8954 24 12 24.8954 12 26C12 27.1046 12.8954 28 14 28C15.1046 28 16 27.1046 16 26C16 24.8954 15.1046 24 14 24Z" fill="#808080" fill-opacity="0.3"/>
<path d="M2 24C0.89543 24 -3.23219e-07 24.8954 -3.10047e-07 26C-2.96875e-07 27.1046 0.89543 28 2 28C3.10457 28 4 27.1046 4 26C4 24.8954 3.10457 24 2 24Z" fill="#808080" fill-opacity="0.3"/>
<path d="M50 12C48.8954 12 48 12.8954 48 14C48 15.1046 48.8954 16 50 16C51.1046 16 52 15.1046 52 14C52 12.8954 51.1046 12 50 12Z" fill="#808080" fill-opacity="0.3"/>
<path d="M38 12C36.8954 12 36 12.8954 36 14C36 15.1046 36.8954 16 38 16C39.1046 16 40 15.1046 40 14C40 12.8954 39.1046 12 38 12Z" fill="#808080" fill-opacity="0.3"/>
<path d="M26 12C24.8954 12 24 12.8954 24 14C24 15.1046 24.8954 16 26 16C27.1046 16 28 15.1046 28 14C28 12.8954 27.1046 12 26 12Z" fill="#808080" fill-opacity="0.3"/>
<path d="M14 12C12.8954 12 12 12.8954 12 14C12 15.1046 12.8954 16 14 16C15.1046 16 16 15.1046 16 14C16 12.8954 15.1046 12 14 12Z" fill="#808080" fill-opacity="0.3"/>
<path d="M2 12C0.89543 12 -4.66317e-07 12.8954 -4.53145e-07 14C-4.39974e-07 15.1046 0.89543 16 2 16C3.10457 16 4 15.1046 4 14C4 12.8954 3.10457 12 2 12Z" fill="#808080" fill-opacity="0.3"/>
<path d="M50 2.38498e-08C48.8954 3.70216e-08 48 0.89543 48 2C48 3.10457 48.8954 4 50 4C51.1046 4 52 3.10457 52 2C52 0.89543 51.1046 1.06779e-08 50 2.38498e-08Z" fill="#808080" fill-opacity="0.3"/>
<path d="M38 1.66948e-07C36.8954 1.8012e-07 36 0.895431 36 2C36 3.10457 36.8954 4 38 4C39.1046 4 40 3.10457 40 2C40 0.895431 39.1046 1.53776e-07 38 1.66948e-07Z" fill="#808080" fill-opacity="0.3"/>
<path d="M26 3.10047e-07C24.8954 3.23219e-07 24 0.895431 24 2C24 3.10457 24.8954 4 26 4C27.1046 4 28 3.10457 28 2C28 0.895431 27.1046 2.96875e-07 26 3.10047e-07Z" fill="#808080" fill-opacity="0.3"/>
<path d="M14 4.53145e-07C12.8954 4.66317e-07 12 0.895431 12 2C12 3.10457 12.8954 4 14 4C15.1046 4 16 3.10457 16 2C16 0.895431 15.1046 4.39974e-07 14 4.53145e-07Z" fill="#808080" fill-opacity="0.3"/>
<path d="M2 5.96244e-07C0.89543 6.09416e-07 -6.09416e-07 0.895431 -5.96244e-07 2C-5.83072e-07 3.10457 0.89543 4 2 4C3.10457 4 4 3.10457 4 2C4 0.895431 3.10457 5.83072e-07 2 5.96244e-07Z" fill="#808080" fill-opacity="0.3"/>
</svg>
