<svg xmlns="http://www.w3.org/2000/svg" width="32" height="32" fill="none"><path fill="#fff" d="M16 0c-4.347 0-4.89.02-6.596.096C7.7.176 6.54.443 5.52.839A7.837 7.837 0 0 0 2.685 2.68 7.794 7.794 0 0 0 .84 5.512C.444 6.53.175 7.689.096 9.39.016 11.094 0 11.636 0 15.977c0 4.34.02 4.882.096 6.586.08 1.7.348 2.86.744 3.879a7.834 7.834 0 0 0 1.845 2.83 7.826 7.826 0 0 0 2.835 1.843c1.021.394 2.181.664 3.884.743 1.707.08 2.25.095 6.596.095 4.347 0 4.89-.02 6.596-.095 1.703-.08 2.864-.35 3.884-.743a7.866 7.866 0 0 0 2.835-1.843 7.802 7.802 0 0 0 1.845-2.83c.395-1.019.665-2.179.744-3.879.08-1.704.096-2.246.096-6.586s-.02-4.883-.096-6.587c-.08-1.7-.35-2.86-.744-3.878a7.84 7.84 0 0 0-1.845-2.83A7.797 7.797 0 0 0 26.48.838C25.46.443 24.299.174 22.596.096 20.889.016 20.346 0 16 0Zm0 2.876c4.27 0 4.78.021 6.467.094 1.56.074 2.406.332 2.969.553a4.97 4.97 0 0 1 1.843 1.193c.558.559.905 1.09 1.194 1.838.219.562.48 1.408.551 2.965.076 1.686.093 2.192.093 6.458 0 4.265-.02 4.773-.098 6.457-.082 1.558-.342 2.403-.562 2.965-.298.748-.638 1.278-1.198 1.84a4.993 4.993 0 0 1-1.84 1.193c-.56.218-1.42.48-2.98.55-1.699.076-2.199.093-6.479.093-4.281 0-4.781-.02-6.479-.098-1.561-.082-2.421-.341-2.981-.561-.759-.298-1.28-.638-1.839-1.197a4.85 4.85 0 0 1-1.2-1.837c-.22-.56-.478-1.418-.56-2.976-.06-1.677-.081-2.195-.081-6.45 0-4.254.021-4.774.081-6.471.082-1.558.34-2.415.56-2.974.28-.76.639-1.279 1.2-1.84.559-.557 1.08-.916 1.839-1.195.56-.22 1.401-.48 2.961-.56 1.7-.06 2.2-.08 6.479-.08l.06.04Zm0 4.897c-4.54 0-8.216 3.674-8.216 8.204 0 4.533 3.68 8.204 8.216 8.204 4.54 0 8.216-3.675 8.216-8.204 0-4.534-3.68-8.204-8.216-8.204Zm0 13.53a5.328 5.328 0 0 1-5.333-5.326A5.328 5.328 0 0 1 16 10.65a5.328 5.328 0 0 1 5.333 5.326A5.328 5.328 0 0 1 16 21.302ZM26.461 7.448a1.92 1.92 0 0 1-3.84 0 1.92 1.92 0 0 1 3.84 0Z"/></svg>