<svg width="20" height="20" viewBox="0 0 20 20" fill="none" xmlns="http://www.w3.org/2000/svg">
<path d="M16.667 6.33301H3.33299C2.41699 6.33301 1.67499 7.08301 1.67499 8.00001L1.66699 18C1.66699 18.917 2.41699 19.667 3.33299 19.667H16.667C17.583 19.667 18.333 18.917 18.333 18V8.00001C18.333 7.08301 17.583 6.33301 16.667 6.33301ZM16.333 9.87501L10.442 13.559C10.3091 13.6408 10.1561 13.6842 9.99999 13.6842C9.84391 13.6842 9.6909 13.6408 9.55799 13.559L3.66699 9.87501C3.5846 9.82751 3.51261 9.76391 3.45534 9.68798C3.39807 9.61206 3.35668 9.52537 3.33364 9.4331C3.3106 9.34083 3.30639 9.24486 3.32126 9.15093C3.33613 9.057 3.36977 8.96702 3.42017 8.88637C3.47058 8.80572 3.53671 8.73606 3.61464 8.68153C3.69256 8.627 3.78066 8.58874 3.8737 8.56901C3.96673 8.54928 4.06279 8.5485 4.15613 8.56671C4.24948 8.58492 4.3382 8.62176 4.41699 8.67501L9.99999 12.167L15.583 8.67501C15.6618 8.62176 15.7505 8.58492 15.8439 8.56671C15.9372 8.5485 16.0332 8.54928 16.1263 8.56901C16.2193 8.58874 16.3074 8.627 16.3853 8.68153C16.4633 8.73606 16.5294 8.80572 16.5798 8.88637C16.6302 8.96702 16.6639 9.057 16.6787 9.15093C16.6936 9.24486 16.6894 9.34083 16.6663 9.4331C16.6433 9.52537 16.6019 9.61206 16.5446 9.68798C16.4874 9.76391 16.4154 9.82751 16.333 9.87501Z" fill="url(#paint0_linear_44_372)"/>
<defs>
<linearGradient id="paint0_linear_44_372" x1="10.0384" y1="6.33301" x2="10.0384" y2="19.667" gradientUnits="userSpaceOnUse">
<stop stop-color="#FFBF00"/>
<stop offset="1" stop-color="#F2A60C"/>
</linearGradient>
</defs>
</svg>
