<svg width="14" height="8" viewBox="0 0 14 8" fill="none" xmlns="http://www.w3.org/2000/svg">
<path d="M6.36701 0.224516C6.75976 -0.0961461 7.33963 -0.0732888 7.70588 0.292875L13.7069 6.29287C14.0973 6.68336 14.0973 7.3164 13.7069 7.70694C13.3164 8.09743 12.6833 8.09739 12.2928 7.70694L6.99787 2.41299L6.2049 3.20694C5.60491 3.8068 4.48118 4.93218 3.50666 5.90713L1.85139 7.56241C1.80516 7.60866 1.76939 7.64537 1.74494 7.66983C1.73276 7.68202 1.7229 7.69089 1.71662 7.69717L1.70685 7.70694C1.31639 8.0974 0.683343 8.09733 0.292792 7.70694C-0.0976452 7.3165 -0.0975495 6.68344 0.292792 6.29287L0.294745 6.29092C0.296331 6.28933 0.298453 6.28624 0.301581 6.28311C0.307853 6.27683 0.317693 6.26798 0.329901 6.25577L0.826972 5.7587C1.1549 5.43059 1.60442 4.98049 2.09162 4.49307C3.06602 3.51823 4.19051 2.39307 4.79084 1.79288L6.22932 0.354398L6.29182 0.292875L6.36701 0.224516Z" fill="#A3A3A3"/>
</svg>
