<svg width="32" height="32" viewBox="0 0 32 32" fill="none" xmlns="http://www.w3.org/2000/svg">
<path d="M16 0C11.6533 0 11.1107 0.0199709 9.404 0.0958604C7.7 0.175744 6.54 0.443354 5.52 0.838778C4.468 1.24618 3.57467 1.79339 2.68533 2.68142C1.796 3.56947 1.24667 4.46017 0.84 5.51197C0.444 6.53049 0.174667 7.6888 0.096 9.39032C0.016 11.0945 0 11.6363 0 15.9767C0 20.3171 0.02 20.8589 0.096 22.5631C0.176 24.2634 0.444 25.423 0.84 26.4415C1.248 27.4907 1.796 28.384 2.68533 29.2721C3.57467 30.1588 4.46667 30.7086 5.52 31.1147C6.54133 31.5088 7.70133 31.779 9.404 31.8576C11.1107 31.9375 11.6533 31.9535 16 31.9535C20.3467 31.9535 20.8893 31.9335 22.596 31.8576C24.2987 31.7777 25.46 31.5088 26.48 31.1147C27.5307 30.7073 28.4253 30.1588 29.3147 29.2721C30.2027 28.384 30.7533 27.4946 31.16 26.4415C31.5547 25.423 31.8253 24.2634 31.904 22.5631C31.984 20.8589 32 20.3171 32 15.9767C32 11.6363 31.98 11.0945 31.904 9.39032C31.824 7.69013 31.5547 6.52916 31.16 5.51197C30.752 4.4615 30.2027 3.56947 29.3147 2.68142C28.4253 1.79339 27.5347 1.24486 26.48 0.838778C25.46 0.443354 24.2987 0.174413 22.596 0.0958604C20.8893 0.0159767 20.3467 0 16 0ZM16 2.87581C20.2707 2.87581 20.78 2.89711 22.4667 2.97034C24.0267 3.04357 24.8733 3.30186 25.436 3.52287C26.1853 3.81178 26.716 4.15794 27.2787 4.7158C27.8373 5.27499 28.184 5.80621 28.4733 6.55445C28.692 7.1163 28.9533 7.96173 29.024 9.51946C29.1 11.205 29.1173 11.7109 29.1173 15.9767C29.1173 20.2425 29.0973 20.7498 29.0187 22.434C28.9373 23.9918 28.6773 24.8371 28.4573 25.399C28.1587 26.1472 27.8187 26.6771 27.2587 27.239C26.7 27.7968 26.16 28.143 25.4187 28.4319C24.8587 28.6503 23.9987 28.9112 22.4387 28.9818C20.74 29.0577 20.24 29.0749 15.96 29.0749C11.6787 29.0749 11.1787 29.055 9.48133 28.9765C7.92 28.8952 7.06 28.6356 6.5 28.4159C5.74133 28.1177 5.22 27.7782 4.66133 27.219C4.1 26.6612 3.74133 26.1219 3.46133 25.3817C3.24133 24.8225 2.98267 23.9638 2.90133 22.4061C2.84133 20.7285 2.82 20.2106 2.82 15.9568C2.82 11.7017 2.84133 11.1824 2.90133 9.48485C2.98267 7.92712 3.24133 7.0697 3.46133 6.51052C3.74133 5.75162 4.1 5.23238 4.66133 4.67186C5.22 4.11401 5.74133 3.75453 6.5 3.47627C7.06 3.25526 7.90133 2.99564 9.46133 2.91575C11.1613 2.85584 11.6613 2.83587 15.94 2.83587L16 2.87581ZM16 7.77268C11.46 7.77268 7.784 11.4473 7.784 15.9767C7.784 20.5101 11.464 24.1808 16 24.1808C20.54 24.1808 24.216 20.5061 24.216 15.9767C24.216 11.4433 20.536 7.77268 16 7.77268ZM16 21.3023C13.0533 21.3023 10.6667 18.9191 10.6667 15.9767C10.6667 13.0343 13.0533 10.6512 16 10.6512C18.9467 10.6512 21.3333 13.0343 21.3333 15.9767C21.3333 18.9191 18.9467 21.3023 16 21.3023ZM26.4613 7.44915C26.4613 8.50761 25.6 9.36636 24.5413 9.36636C23.4813 9.36636 22.6213 8.50628 22.6213 7.44915C22.6213 6.39202 23.4827 5.53327 24.5413 5.53327C25.5987 5.53194 26.4613 6.39202 26.4613 7.44915Z" fill="white"/>
</svg>
