<svg width="32" height="23" viewBox="0 0 32 23" fill="none" xmlns="http://www.w3.org/2000/svg">
<path d="M31.3307 3.51622C31.1499 2.83624 30.7934 2.21562 30.2968 1.71652C29.8003 1.21742 29.1811 0.857341 28.5013 0.67236C26.0067 -1.78554e-07 16 0 16 0C16 0 5.99333 -1.78554e-07 3.49733 0.67236C2.81788 0.857671 2.19906 1.21788 1.70277 1.71694C1.20648 2.21601 0.850122 2.83646 0.669333 3.51622C0 6.02456 0 11.2569 0 11.2569C0 11.2569 0 16.4893 0.669333 18.9977C0.850115 19.6777 1.20663 20.2983 1.70319 20.7973C2.19974 21.2964 2.8189 21.6565 3.49867 21.8415C5.99333 22.5138 16 22.5138 16 22.5138C16 22.5138 26.0067 22.5138 28.5027 21.8415C29.1825 21.6567 29.8017 21.2966 30.2983 20.7975C30.7949 20.2984 31.1513 19.6777 31.332 18.9977C32 16.4893 32 11.2569 32 11.2569C32 11.2569 32 6.02456 31.3307 3.51622ZM12.7267 16.0073V6.50656L21.0907 11.2569L12.7267 16.0073Z" fill="white"/>
</svg>
